<?xml version="1.0" encoding="utf-8"?>
<!-- Generator: Adobe Illustrator 22.1.0, SVG Export Plug-In . SVG Version: 6.00 Build 0)  -->
<svg version="1.1" id="Layer_1" xmlns="http://www.w3.org/2000/svg" xmlns:xlink="http://www.w3.org/1999/xlink" x="0px" y="0px"
	 width="200px" height="200px" viewBox="0 0 200 200" style="enable-background:new 0 0 200 200;" xml:space="preserve">
<style type="text/css">
	.st0{fill:#D2D3D5;}
</style>
<g id="Слой_x0020_1">
	<path class="st0" d="M4.6,4.6L4.6,4.6c5.4-5.4,14.1-5.4,19.5,0l76.2,76.2l76.2-76.2c5.4-5.4,14.1-5.4,19.5,0l0,0
		c5.4,5.4,5.4,14.1,0,19.5l-76.2,76.2l76.2,76.2c5.4,5.4,5.4,14.1,0,19.5l0,0c-5.4,5.4-14.1,5.4-19.5,0l-76.2-76.2L24.1,196
		c-5.4,5.4-14.1,5.4-19.5,0l0,0c-5.4-5.4-5.4-14.1,0-19.5l76.2-76.2L4.6,24.1C-0.8,18.7-0.8,10,4.6,4.6z"/>
</g>
</svg>
